<mxfile host="app.diagrams.net" modified="2023-05-11T07:48:20.858Z" agent="Mozilla/5.0 (Macintosh; Intel Mac OS X 10_15_7) AppleWebKit/537.36 (KHTML, like Gecko) Chrome/113.0.0.0 Safari/537.36" version="21.2.3" etag="b77AGZErPnih0E2cT3qo" type="github">
  <diagram name="第 1 页" id="k4qV4FxHx56MbskA8QqI">
    <mxGraphModel>
      <root>
        <mxCell id="0" />
        <mxCell id="1" parent="0" />
      </root>
    </mxGraphModel>
  </diagram>
</mxfile>
